<svg width="22" height="21" viewBox="0 0 22 21" fill="none" xmlns="http://www.w3.org/2000/svg">
  <path d="M8.96234 20.8336C9.70741 20.8336 10.3114 20.2297 10.3114 19.4847C10.3114 18.7397 9.70741 18.1357 8.96234 18.1357C8.21728 18.1357 7.61328 18.7397 7.61328 19.4847C7.61328 20.2297 8.21728 20.8336 8.96234 20.8336Z" fill="white" />
  <path d="M16.5168 20.8336C17.2619 20.8336 17.8658 20.2297 17.8658 19.4847C17.8658 18.7397 17.2619 18.1357 16.5168 18.1357C15.7717 18.1357 15.1677 18.7397 15.1677 19.4847C15.1677 20.2297 15.7717 20.8336 16.5168 20.8336Z" fill="white" />
  <path d="M20.5043 4.79611H5.75632L4.51095 1.47481C4.34747 1.03733 4.07077 0.663637 3.71592 0.401082C3.36107 0.138527 2.94405 -0.00106227 2.51771 6.08695e-06H1C0.447715 6.08695e-06 0 0.447721 0 1.00001V1.39806C0 1.95034 0.447715 2.39806 1 2.39806H2.51879L7.63732 16.049C7.80459 16.495 8.19849 16.7864 8.6334 16.7864H17.2668C17.7168 16.7864 18.1193 16.4758 18.278 16.0094L21.5155 6.41719C21.5761 6.23565 21.5964 6.04053 21.5747 5.8484C21.5529 5.65628 21.4897 5.47284 21.3904 5.31369C21.2911 5.15453 21.1587 5.02437 21.0044 4.93425C20.8502 4.84414 20.6786 4.79675 20.5043 4.79611ZM16.637 11.6909H14.0293V13.9391H12.1405V11.6909H9.44263V9.59222H12.1405V7.19416H14.0293V9.59222H16.637V11.6909Z" fill="white" />
</svg>